<?xml version="1.0" encoding="UTF-8"?>
<svg width="12px" height="7px" viewBox="0 0 12 7" version="1.1" xmlns="http://www.w3.org/2000/svg" xmlns:xlink="http://www.w3.org/1999/xlink">
    <!-- Generator: Sketch 52.3 (67297) - http://www.bohemiancoding.com/sketch -->
    <title>drop-list</title>
    <desc>Created with Sketch.</desc>
    <g id="Website" stroke="none" stroke-width="1" fill="none" fill-rule="evenodd">
        <g id="6-emplois-carrieres" transform="translate(-1116.000000, -2274.000000)" fill="#00293E">
            <g id="drop-list" transform="translate(1116.000000, 2274.000000)">
                <path d="M5.302,3.652 L2.098,0.417 C1.9567164,0.273970246 1.76404369,0.193468542 1.563,0.193468542 C1.36195631,0.193468542 1.1692836,0.273970246 1.028,0.417 C0.732401065,0.713591133 0.732401065,1.19340887 1.028,1.49 L5.465,5.97 C5.60574196,6.11403706 5.79861735,6.19523906 6,6.19523906 C6.20138265,6.19523906 6.39425804,6.11403706 6.535,5.97 L9.518,2.961 L10.974,1.491 C11.2668836,1.19329197 11.2668836,0.715708033 10.974,0.418 C10.8329855,0.274468703 10.6402121,0.193618683 10.439,0.193618683 C10.2377879,0.193618683 10.0450145,0.274468703 9.904,0.418 L6.814,3.536 C6.814,3.536 6.346,4.136 6.078,4.156 C5.811,4.176 5.301,3.652 5.301,3.652 L5.302,3.652 Z" id="Path"></path>
            </g>
        </g>
    </g>
</svg>