<svg aria-hidden="true" style="position: absolute; width: 0; height: 0; overflow: hidden;" version="1.1" xmlns="http://www.w3.org/2000/svg" xmlns:xlink="http://www.w3.org/1999/xlink">
  <!-- Symbol SVG definitions -->
  <defs>
    <symbol id="logo-overdog" viewBox="0 0 54 68">
    <path d="M53.716 11.883a.734.734 0 00-.014-.138v-.044a.844.844 0 00-.107-.258v-.017a.671.671 0 00-.096-.118L42.695.523a.839.839 0 00-1.19 0L31.009 11.018h-8.203L12.306.523a.825.825 0 00-1.188 0L.344 11.296a.671.671 0 00-.096.118v.017a.638.638 0 00-.061.112l-.016.047a.52.52 0 00-.03.1v.043a.734.734 0 00-.014.138v21.574c0 .047.005.093.013.14v.041a.621.621 0 00.03.102l.017.044a.726.726 0 00.162.242l4.631 4.628v12.614c0 .047.005.094.014.14v.042a.621.621 0 00.03.102l.017.044a.726.726 0 00.162.242L20.449 67.07h.014a.809.809 0 00.387.206h.044a.722.722 0 00.138.014h11.715a.763.763 0 00.14-.014h.044a.712.712 0 00.102-.03l.041-.017a.655.655 0 00.242-.16h.017l15.243-15.242c.036-.038.069-.079.099-.121.025-.04.047-.08.066-.122l.017-.044c0-.032.021-.066.03-.101v-.041a.808.808 0 00.014-.14V38.67l4.63-4.628c.036-.038.07-.078.1-.12.024-.04.046-.08.066-.122l.016-.044c0-.033.022-.066.03-.102v-.04a.808.808 0 00.014-.141v-21.59h.058zM42.1 2.307l9.6 9.584-9.603 9.59-9.587-9.585 9.59-9.589zM22.85 12.73h8.12l9.939 9.941-14 13.998L12.91 22.67l9.939-9.941zm12.749 35.12H18.213l8.693-8.693 8.693 8.693zM11.712 2.307l9.59 9.59-9.584 9.583-9.59-9.589 9.584-9.584zM1.78 13.923l8.748 8.748-8.748 8.748V13.923zm.35 19.525l9.589-9.589 14.055 14.052-9.592 9.59L2.128 33.448zm4.523 6.903l8.8 8.8v10.576l-8.8-8.8V40.351zM32.41 65.678h-11l-4.29-4.29V49.536h19.588V61.39l-4.298 4.287zm14.75-14.75l-8.8 8.8V49.15l8.8-8.8v10.576zM37.632 47.5l-9.581-9.587 14.055-14.052L51.7 33.45l-14.069 14.05zm14.402-16.085l-8.748-8.745 8.748-8.748v17.493z" fill="#CACCD6">
    </path>
    </symbol>
    <symbol id="logo-3ejoueur" viewBox="0 0 32 32">
    <path d="M16.705 25.9h4.761v-6.943h-4.761v6.943zM16.893 30.354l3.698-3.678h-3.698v3.678zM16.21 18.18l4.383-4.36h-9.045v4.36h4.662zM9.323 5.325h6.602v-4.36h-6.602v4.36zM16.893 12.856h4.385v-6.566h-4.385v6.566zM16.893 1.646v3.68h3.699l-3.699-3.68zM20.591 18.18l-1.506-1.498-1.506 1.498h3.012zM9.323 31.036h6.602v-4.361h-6.602v4.361zM3.968 25.711h4.386v-4.367h-4.386v4.367zM8.355 30.356v-3.681h-3.701l3.701 3.681zM8.355 5.326v-3.68l-3.7 3.68h3.7zM3.97 10.648h4.385v-4.358h-4.385v4.358zM16.409 0c0.032 0.002 0.056 0.003 0.078 0.007v0l0.028 0.005 0.003 0 0.015 0.004c0.018 0.005 0.036 0.011 0.054 0.018 0.046 0.020 0.061 0.029 0.078 0.039 0.030 0.021 0.049 0.035 0.065 0.048v0l0.023 0.020 5.352 5.324c0.025 0.026 0.041 0.046 0.056 0.068 0.023 0.035 0.033 0.053 0.042 0.073 0.019 0.046 0.026 0.067 0.031 0.090v0l0.003 0.012c0.006 0.027 0.009 0.057 0.010 0.087v0l0 7.542c-0.002 0.040-0.004 0.069-0.010 0.098-0.007 0.031-0.015 0.058-0.027 0.084-0.020 0.043-0.029 0.061-0.041 0.079-0.025 0.038-0.044 0.060-0.064 0.081v0l-2.334 2.322 2.332 2.319c0.024 0.026 0.041 0.045 0.055 0.067 0.023 0.037 0.034 0.056 0.043 0.078 0.019 0.046 0.027 0.069 0.032 0.094 0.008 0.037 0.011 0.064 0.011 0.092v0l0.001 7.559-0.003 0.020c0.002 0.003-0.001 0.032-0.007 0.060-0.007 0.030-0.015 0.053-0.023 0.076-0.019 0.043-0.028 0.061-0.040 0.080v0l-0.021 0.032c-0.006 0.009-0.021 0.027-0.037 0.045v0l-0.031 0.031-5.423 5.374c-0.004 0.003-0.024 0.014-0.044 0.024v0l-0.049 0.019c-0.031 0.016-0.094 0.029-0.159 0.029v0h-7.569c-0.032 0-0.064-0.003-0.094-0.009v0l-0.040-0.012c-0.078-0.021-0.152-0.064-0.21-0.122v0l-5.352-5.323c-0.026-0.027-0.042-0.047-0.056-0.068-0.028-0.045-0.035-0.059-0.042-0.073-0.020-0.048-0.026-0.068-0.031-0.090v0l-0.006-0.034c-0.005-0.027-0.006-0.045-0.007-0.062v0l-0.001-5.345c0-0.266 0.217-0.482 0.484-0.482v0h5.355c0.267 0 0.484 0.216 0.484 0.482v0 4.85h6.602v-6.567h-4.861c-0.267 0-0.484-0.217-0.484-0.483v0-5.324c0-0.266 0.217-0.482 0.484-0.482v0h4.861v-6.566h-6.602v4.84c0 0.266-0.217 0.483-0.484 0.483v0h-5.354c-0.267 0-0.484-0.216-0.484-0.483v0-5.322c0.002-0.039 0.004-0.067 0.009-0.093 0.010-0.040 0.017-0.062 0.025-0.084v0l0.023-0.047c-0.003 0.006 0.004-0.010 0.013-0.026v0l0.030-0.043c-0.002-0.001 0.016-0.023 0.039-0.046v0l5.357-5.33c0.024-0.022 0.044-0.038 0.065-0.053 0.032-0.021 0.047-0.029 0.063-0.037v0l0.039-0.017c0.018-0.008 0.043-0.015 0.074-0.023 0.030-0.006 0.059-0.009 0.087-0.010v0zM28.055 6l0.945 1.050v3.176h-3.467v1.374h3.467v0.35l-0.945 1.050h-2.837l-0.945-0.675v-5.276l0.945-1.050h2.837zM27.739 7.401h-2.206v1.425h2.206v-1.425z">
    </path>
    </symbol>
  </defs>
</svg>
