<svg><defs/><symbol id="logo-3ejoueur" viewBox="0 0 26 32"><path d="M13.705 25.9h4.76v-6.944h-4.76V25.9zm.188 4.454v-3.679h3.698l-3.698 3.679zM13.21 18.18H8.547v-4.36h9.045l-4.382 4.36zM6.323 5.325h6.602V.965H6.323v4.36zm7.57 7.531h4.385V6.29h-4.385v6.566zm0-11.21l3.7 3.68h-3.7v-3.68zm3.698 16.534H14.58l1.505-1.498 1.506 1.498zM6.323 31.036h6.602v-4.36H6.323v4.36zM.968 25.71h4.387v-4.367H.968v4.367zm4.387 4.645l-3.701-3.68h3.7v3.68zm0-25.03h-3.7l3.7-3.68v3.68zM.97 10.648h4.385V6.289H.97v4.359zM13.41 0a.774.774 0 01.078.007l.027.005h.003l.015.004a.602.602 0 01.131.057c.03.021.05.035.065.048l.023.02 5.352 5.325a.472.472 0 01.098.141.55.55 0 01.03.09l.004.012a.5.5 0 01.01.087v7.542a.466.466 0 01-.078.26.486.486 0 01-.064.081l-2.334 2.322 2.333 2.32a.543.543 0 01.098.143.537.537 0 01.044.187v7.559l-.003.02a.236.236 0 01-.007.06.56.56 0 01-.064.157l-.02.032a.653.653 0 01-.038.045l-.031.03-5.423 5.375a.444.444 0 01-.044.024l-.049.018a.4.4 0 01-.158.029h-7.57a.52.52 0 01-.093-.009l-.04-.011a.468.468 0 01-.21-.122L.142 26.534a.527.527 0 01-.098-.14.587.587 0 01-.032-.09l-.005-.035A.42.42 0 010 26.207v-5.345c0-.266.217-.482.484-.482h5.355c.267 0 .484.216.484.482v4.85h6.602v-6.567H8.063a.484.484 0 01-.484-.483v-5.324c0-.266.217-.482.484-.482h4.862V6.289H6.323v4.84a.484.484 0 01-.484.483H.485a.484.484 0 01-.484-.482V5.807a.608.608 0 01.01-.092.646.646 0 01.024-.084l.024-.047a.117.117 0 01.013-.026l.03-.043A.216.216 0 01.14 5.47L5.498.14a.556.556 0 01.065-.052.79.79 0 01.062-.037l.04-.017a.46.46 0 01.161-.032zm11.645 6L26 7.05v3.176h-3.467V11.6H26v.35L25.055 13h-2.837l-.945-.675V7.05L22.218 6h2.837zm-.316 1.4h-2.206v1.426h2.206V7.401z" fill="#969CA6" fill-rule="evenodd"/></symbol><symbol id="logo-overdog" viewBox="0 0 54 68"><path d="M53.716 11.883a.734.734 0 00-.014-.138v-.044a.844.844 0 00-.107-.258v-.017a.671.671 0 00-.096-.118L42.695.523a.839.839 0 00-1.19 0L31.009 11.018h-8.203L12.306.523a.825.825 0 00-1.188 0L.344 11.296a.671.671 0 00-.096.118v.017a.638.638 0 00-.061.112l-.016.047a.52.52 0 00-.03.1v.043a.734.734 0 00-.014.138v21.574c0 .047.005.093.013.14v.041a.621.621 0 00.03.102l.017.044a.726.726 0 00.162.242l4.631 4.628v12.614a.73.73 0 00.014.14v.042a.621.621 0 00.03.102l.017.044a.726.726 0 00.162.242L20.449 67.07h.014a.809.809 0 00.387.206h.044a.722.722 0 00.138.014h11.715a.763.763 0 00.14-.014h.044a.712.712 0 00.102-.03l.041-.017a.655.655 0 00.242-.16h.017l15.243-15.242c.036-.038.069-.079.099-.121.025-.04.047-.08.066-.122l.017-.044c0-.032.021-.066.03-.101v-.041a.808.808 0 00.014-.14V38.67l4.63-4.628c.036-.038.07-.078.1-.12.024-.04.046-.08.066-.122l.016-.044c0-.033.022-.066.03-.102v-.04a.808.808 0 00.014-.141v-21.59h.058zM42.1 2.307l9.6 9.584-9.603 9.59-9.587-9.585 9.59-9.589zM22.85 12.73h8.12l9.939 9.941-14 13.998L12.91 22.67l9.939-9.941zm12.749 35.12H18.213l8.693-8.693 8.693 8.693zM11.712 2.307l9.59 9.59-9.584 9.583-9.59-9.589 9.584-9.584zM1.78 13.923l8.748 8.748-8.748 8.748V13.923zm.35 19.525l9.589-9.589 14.055 14.052-9.592 9.59L2.128 33.448zm4.523 6.903l8.8 8.8v10.576l-8.8-8.8V40.351zM32.41 65.678h-11l-4.29-4.29V49.536h19.588V61.39l-4.298 4.287zm14.75-14.75l-8.8 8.8V49.15l8.8-8.8v10.576zM37.632 47.5l-9.581-9.587 14.055-14.052L51.7 33.45 37.631 47.5zm14.402-16.085l-8.748-8.745 8.748-8.748v17.493z" fill="#80828A"/></symbol></svg>