<?xml version="1.0" encoding="UTF-8"?>
<svg width="196px" height="244px" viewBox="0 0 196 244" version="1.1" xmlns="http://www.w3.org/2000/svg" xmlns:xlink="http://www.w3.org/1999/xlink">
    <!-- Generator: Sketch 52.3 (67297) - http://www.bohemiancoding.com/sketch -->
    <title>logo-underdog</title>
    <desc>Created with Sketch.</desc>
    <g id="Page-1" stroke="none" stroke-width="1" fill="none" fill-rule="evenodd">
        <path d="M195.33,42.21 C195.328192,42.0421805 195.31146,41.8748544 195.28,41.71 L195.28,41.55 C195.250732,41.4278629 195.213996,41.307637 195.17,41.19 C195.150976,41.1316534 195.127576,41.0748254 195.1,41.02 C195.040036,40.8784214 194.96985,40.741393 194.89,40.61 C194.89,40.61 194.89,40.61 194.89,40.55 C194.79005,40.3938342 194.672625,40.2495698 194.54,40.12 L155.26,0.9 C154.687351,0.32290443 153.907998,-0.00168088963 153.095,-0.00168088963 C152.282002,-0.00168088963 151.502649,0.32290443 150.93,0.9 L112.76,39.07 L82.93,39.07 L44.75,0.9 C44.1845503,0.313344383 43.4047995,-0.0180778113 42.59,-0.0180778113 C41.7752005,-0.0180778113 40.9954497,0.313344383 40.43,0.9 L1.25,40.08 C1.25,40.08 1.25,40.08 1.25,40.08 C1.11737469,40.2095698 0.999950153,40.3538342 0.9,40.51 L0.9,40.57 C0.813112503,40.698949 0.739408586,40.8363063 0.68,40.98 L0.62,41.15 C0.57144474,41.2660405 0.534595352,41.3866385 0.51,41.51 C0.51,41.56 0.51,41.62 0.51,41.67 C0.478540396,41.8348544 0.461807787,42.0021805 0.46,42.17 L0.46,120.62 C0.46179107,120.791131 0.478521271,120.961779 0.51,121.13 C0.51,121.13 0.51,121.23 0.51,121.28 C0.536047705,121.406245 0.572848567,121.530029 0.62,121.65 L0.68,121.81 C0.742674497,121.963566 0.819681613,122.110884 0.91,122.25 C1.01273701,122.409981 1.13353047,122.557618 1.27,122.69 C1.27,122.69 1.27,122.69 1.27,122.69 L18.11,139.52 L18.11,185.39 C18.1117911,185.561131 18.1285213,185.731779 18.16,185.9 C18.16,185.95 18.16,186 18.16,186.05 C18.1860477,186.176245 18.2228486,186.300029 18.27,186.42 L18.33,186.58 C18.3926745,186.733566 18.4696816,186.880884 18.56,187.02 C18.662737,187.179981 18.7835305,187.327618 18.92,187.46 C18.92,187.46 18.92,187.46 18.92,187.46 L74.36,242.89 L74.41,242.89 C74.545149,243.020455 74.6924892,243.137657 74.85,243.24 C74.9891159,243.330318 75.1364339,243.407326 75.29,243.47 C75.3415237,243.494529 75.3950524,243.514602 75.45,243.53 C75.5699706,243.577151 75.6937553,243.613952 75.82,243.64 L75.98,243.64 C76.1447751,243.672002 76.3121506,243.68874 76.48,243.69 L119.08,243.69 C119.251131,243.688209 119.421779,243.671479 119.59,243.64 L119.75,243.64 C119.875898,243.612588 119.999575,243.575819 120.12,243.53 L120.27,243.47 C120.427738,243.409521 120.578588,243.33242 120.72,243.24 C120.87433,243.137535 121.01834,243.020317 121.15,242.89 L121.21,242.89 L176.64,187.46 C176.770735,187.322454 176.891066,187.175383 177,187.02 C177,187.02 177,187.02 177,187.02 C177.089723,186.87885 177.169902,186.731855 177.24,186.58 L177.3,186.42 C177.3,186.3 177.38,186.18 177.41,186.05 L177.41,185.9 C177.441479,185.731779 177.458209,185.561131 177.46,185.39 L177.46,139.62 L194.3,122.79 C194.430735,122.652454 194.551066,122.505383 194.66,122.35 C194.749723,122.20885 194.829902,122.061855 194.9,121.91 L194.96,121.75 C194.96,121.63 195.04,121.51 195.07,121.38 L195.07,121.23 C195.101479,121.061779 195.118209,120.891131 195.12,120.72 L195.12,42.21 L195.33,42.21 Z M153.09,7.39 L188,42.24 L153.08,77.11 L118.22,42.26 L153.09,7.39 Z M83.09,45.29 L112.62,45.29 L148.76,81.44 L97.85,132.34 L46.95,81.44 L83.09,45.29 Z M129.45,173 L66.23,173 L97.84,141.39 L129.45,173 Z M42.59,7.39 L77.46,42.26 L42.61,77.11 L7.74,42.24 L42.59,7.39 Z M6.47,49.63 L38.28,81.44 L6.47,113.25 L6.47,49.63 Z M7.74,120.63 L42.61,85.76 L93.72,136.86 L58.84,171.73 L7.74,120.63 Z M24.19,145.73 L56.19,177.73 L56.19,216.19 L24.19,184.19 L24.19,145.73 Z M117.85,237.83 L77.85,237.83 L62.25,222.23 L62.25,179.13 L133.48,179.13 L133.48,222.24 L117.85,237.83 Z M171.49,184.19 L139.49,216.19 L139.49,177.73 L171.49,145.73 L171.49,184.19 Z M136.84,171.73 L102,136.87 L153.11,85.77 L188,120.64 L136.84,171.73 Z M189.21,113.24 L157.4,81.44 L189.21,49.63 L189.21,113.24 Z" id="logo-underdog" fill="#DF1F29" fill-rule="nonzero"></path>
    </g>
</svg>