<?xml version="1.0" encoding="UTF-8"?>
<svg width="54px" height="68px" viewBox="0 0 54 68" version="1.1" xmlns="http://www.w3.org/2000/svg" xmlns:xlink="http://www.w3.org/1999/xlink">
    <title>underdog-logo</title>
    <g id="Page-1" stroke="none" stroke-width="1" fill="none" fill-rule="evenodd">
        <g id="Artboard" transform="translate(-47.000000, -31.000000)" fill="#80828A" fill-rule="nonzero">
            <g id="underdog-logo" transform="translate(47.000000, 31.000000)">
                <path d="M53.71575,11.88275 C53.71575,11.8365996 53.7106515,11.790585 53.702,11.74525 L53.702,11.70125 C53.6939513,11.6676623 53.6838489,11.6346002 53.67175,11.60225 C53.6665184,11.5862047 53.6600834,11.570577 53.6525,11.5555 C53.6360099,11.5165659 53.6167088,11.4788831 53.59475,11.44275 C53.59475,11.44275 53.59475,11.44275 53.59475,11.42625 C53.5672638,11.3833044 53.5349719,11.3436317 53.4985,11.308 L42.6965,0.5225 C42.5390215,0.363798718 42.3246995,0.274537755 42.101125,0.274537755 C41.8775506,0.274537755 41.6632285,0.363798718 41.50575,0.5225 L31.009,11.01925 L22.80575,11.01925 L12.30625,0.5225 C12.1507513,0.361169705 11.9363199,0.270028602 11.71225,0.270028602 C11.4881801,0.270028602 11.2737487,0.361169705 11.11825,0.5225 L0.34375,11.297 C0.34375,11.297 0.34375,11.297 0.34375,11.297 C0.30727804,11.3326317 0.274986292,11.3723044 0.2475,11.41525 L0.2475,11.43175 C0.223605938,11.467211 0.203337361,11.5049842 0.187,11.5445 L0.1705,11.59125 C0.157147303,11.6231611 0.147013722,11.6563256 0.14025,11.69025 C0.14025,11.704 0.14025,11.7205 0.14025,11.73425 C0.131598609,11.779585 0.1265,11.8255996 0.1265,11.87175 L0.1265,33.4455 C0.1265,33.492561 0.13159335,33.5394892 0.14025,33.58575 C0.14025,33.58575 0.14025,33.61325 0.14025,33.627 C0.147413119,33.6617174 0.157533356,33.695758 0.1705,33.72875 L0.187,33.77275 C0.204235487,33.8149807 0.225412444,33.8554931 0.25025,33.89375 C0.278502678,33.9377448 0.311720879,33.978345 0.34925,34.01475 C0.34925,34.01475 0.34925,34.01475 0.34925,34.01475 L4.98025,38.643 L4.98025,51.25725 C4.98074255,51.304311 4.98534336,51.3512392 4.994,51.3975 C4.994,51.41125 4.994,51.425 4.994,51.43875 C5.00116312,51.4734674 5.01128336,51.507508 5.02425,51.5405 L5.04075,51.5845 C5.05798549,51.6267307 5.07916244,51.6672431 5.104,51.7055 C5.13225267,51.7494948 5.16547089,51.790095 5.203,51.8265 C5.203,51.8265 5.203,51.8265 5.203,51.8265 L20.449,67.06975 L20.46275,67.06975 C20.499916,67.1056251 20.5404345,67.1378557 20.58375,67.166 C20.6220069,67.1908375 20.6625193,67.2120147 20.70475,67.22925 C20.718919,67.2359955 20.7336394,67.2415156 20.74875,67.24575 C20.7817419,67.2587165 20.8157827,67.2688368 20.8505,67.276 L20.8945,67.276 C20.9398132,67.2848006 20.9858414,67.28975 21.032,67.28975 L32.747,67.28975 C32.794061,67.28975 32.8409892,67.2846567 32.88725,67.276 L32.93125,67.276 C32.965872,67.2684617 32.9998831,67.2583502 33.033,67.24575 L33.07425,67.22925 C33.117628,67.2126183 33.1591117,67.1914155 33.198,67.166 C33.2404408,67.1378221 33.2800435,67.1055872 33.31625,67.06975 L33.33275,67.06975 L48.576,51.8265 C48.6119521,51.7886748 48.6450431,51.7482303 48.675,51.7055 C48.675,51.7055 48.675,51.7055 48.675,51.7055 C48.6996738,51.6666838 48.7217231,51.6262601 48.741,51.5845 L48.7575,51.5405 C48.7575,51.5075 48.7795,51.4745 48.78775,51.43875 L48.78775,51.3975 C48.7964067,51.3512392 48.8010075,51.304311 48.8015,51.25725 L48.8015,38.6705 L53.4325,34.04225 C53.4684521,34.0044248 53.5015431,33.9639803 53.5315,33.92125 C53.5561738,33.8824338 53.5782231,33.8420101 53.5975,33.80025 L53.614,33.75625 C53.614,33.72325 53.636,33.69025 53.64425,33.6545 L53.64425,33.61325 C53.6529067,33.5669892 53.6575075,33.520061 53.658,33.473 L53.658,11.88275 L53.71575,11.88275 Z M42.09975,2.30725 L51.7,11.891 L42.097,21.48025 L32.5105,11.8965 L42.09975,2.30725 Z M22.84975,12.72975 L30.9705,12.72975 L40.909,22.671 L26.90875,36.6685 L12.91125,22.671 L22.84975,12.72975 Z M35.59875,47.85 L18.21325,47.85 L26.906,39.15725 L35.59875,47.85 Z M11.71225,2.30725 L21.3015,11.8965 L11.71775,21.48025 L2.1285,11.891 L11.71225,2.30725 Z M1.77925,13.92325 L10.527,22.671 L1.77925,31.41875 L1.77925,13.92325 Z M2.1285,33.44825 L11.71775,23.859 L25.773,37.9115 L16.181,47.50075 L2.1285,33.44825 Z M6.65225,40.35075 L15.45225,49.15075 L15.45225,59.72725 L6.65225,50.92725 L6.65225,40.35075 Z M32.40875,65.67825 L21.40875,65.67825 L17.11875,61.38825 L17.11875,49.53575 L36.707,49.53575 L36.707,61.391 L32.40875,65.67825 Z M47.15975,50.92725 L38.35975,59.72725 L38.35975,49.15075 L47.15975,40.35075 L47.15975,50.92725 Z M37.631,47.50075 L28.05,37.91425 L42.10525,23.86175 L51.7,33.451 L37.631,47.50075 Z M52.03275,31.416 L43.285,22.671 L52.03275,13.92325 L52.03275,31.416 Z" id="logo-underdog"></path>
            </g>
        </g>
    </g>
</svg>