<?xml version="1.0" encoding="UTF-8"?>
<svg width="26px" height="32px" viewBox="0 0 26 32" version="1.1" xmlns="http://www.w3.org/2000/svg" xmlns:xlink="http://www.w3.org/1999/xlink">
    <!-- Generator: Sketch 61.2 (89653) - https://sketch.com -->
    <title>footer__logo-3e</title>
    <desc>Created with Sketch.</desc>
    <g id="Symbols" stroke="none" stroke-width="1" fill-rule="evenodd">
        <g id="Layout/footer" transform="translate(-1301.000000, -704.000000)">
            <path d="M1314.70482,729.899671 L1319.46594,729.899671 L1319.46594,722.956424 L1314.70482,722.956424 L1314.70482,729.899671 Z M1314.89314,734.353694 L1314.89314,730.6752 L1318.59116,730.6752 L1314.89314,734.353694 Z M1314.20969,722.180141 L1309.54745,722.180141 L1309.54745,717.820235 L1318.59229,717.820235 L1314.20969,722.180141 Z M1307.32275,709.3248 L1313.92476,709.3248 L1313.92476,704.964518 L1307.32275,704.964518 L1307.32275,709.3248 Z M1314.89314,716.856094 L1319.27838,716.856094 L1319.27838,710.290071 L1314.89314,710.290071 L1314.89314,716.856094 Z M1314.89314,705.645929 L1318.59229,709.325553 L1314.89314,709.325553 L1314.89314,705.645929 Z M1318.59116,722.180141 L1315.5796,722.180141 L1317.08538,720.682165 L1318.59116,722.180141 Z M1307.32275,735.035859 L1313.92476,735.035859 L1313.92476,730.6752 L1307.32275,730.6752 L1307.32275,735.035859 Z M1301.96838,729.711435 L1306.35475,729.711435 L1306.35475,725.344376 L1301.96838,725.344376 L1301.96838,729.711435 Z M1306.35475,734.356329 L1302.65371,730.6752 L1306.35475,730.6752 L1306.35475,734.356329 Z M1306.35475,709.325553 L1302.65522,709.325553 L1306.35475,705.645929 L1306.35475,709.325553 Z M1301.96989,714.647718 L1306.35475,714.647718 L1306.35475,710.289318 L1301.96989,710.289318 L1301.96989,714.647718 Z M1314.40933,704 C1314.44103,704.001506 1314.46518,704.003388 1314.48782,704.006776 L1314.48782,704.006776 L1314.51537,704.012047 L1314.51801,704.012424 L1314.53311,704.016188 C1314.55085,704.021459 1314.56896,704.027482 1314.5867,704.034635 C1314.63236,704.054965 1314.64783,704.063247 1314.66444,704.073412 C1314.69463,704.094118 1314.71388,704.108424 1314.72897,704.121224 L1314.72897,704.121224 L1314.75199,704.141553 L1320.1041,709.465976 C1320.12863,709.491576 1320.14524,709.511529 1320.15995,709.533741 C1320.18297,709.568753 1320.19279,709.5872 1320.20184,709.607153 C1320.22071,709.653082 1320.22751,709.674541 1320.23279,709.697129 L1320.23279,709.697129 L1320.23619,709.7088 C1320.24222,709.736282 1320.24524,709.766024 1320.24638,709.796141 L1320.24638,709.796141 L1320.24675,717.337976 C1320.24524,717.378259 1320.2426,717.407247 1320.23656,717.435482 C1320.22939,717.466729 1320.22109,717.493459 1320.20977,717.519435 C1320.19015,717.562729 1320.18071,717.580424 1320.16863,717.598494 C1320.14335,717.636518 1320.12486,717.658729 1320.10448,717.679059 L1320.10448,717.679059 L1317.77034,720.000753 L1320.10259,722.320188 C1320.12674,722.345788 1320.14335,722.365365 1320.15807,722.386824 C1320.18147,722.423341 1320.19241,722.443294 1320.20147,722.464376 C1320.22034,722.510682 1320.22826,722.533647 1320.23354,722.558494 C1320.24147,722.595012 1320.24411,722.622118 1320.24487,722.650729 L1320.24487,722.650729 L1320.24562,730.209882 L1320.24222,730.230212 C1320.24411,730.233224 1320.24109,730.262212 1320.23543,730.290447 C1320.22826,730.320565 1320.22071,730.343153 1320.21203,730.366871 C1320.19316,730.410165 1320.18373,730.427482 1320.17165,730.447059 L1320.17165,730.447059 L1320.15014,730.478682 C1320.14448,730.487341 1320.12901,730.505412 1320.11316,730.523859 L1320.11316,730.523859 L1320.08183,730.554729 L1314.65878,735.928847 C1314.65463,735.932235 1314.63463,735.942776 1314.615,735.952565 L1314.615,735.952565 L1314.56632,735.971388 C1314.535,735.9872 1314.47235,736 1314.40782,736 L1314.40782,736 L1306.83894,736 C1306.80686,736 1306.77516,735.996988 1306.74459,735.991341 L1306.74459,735.991341 L1306.70421,735.979671 C1306.62609,735.958965 1306.55174,735.915671 1306.49438,735.857694 L1306.49438,735.857694 L1301.14265,730.5344 C1301.11699,730.507294 1301.10076,730.487718 1301.08642,730.466635 C1301.0585,730.421459 1301.05095,730.407906 1301.04453,730.393224 C1301.02491,730.345035 1301.01849,730.325082 1301.01321,730.303247 L1301.01321,730.303247 L1301.00755,730.268988 C1301.00264,730.241882 1301.00151,730.224188 1301.00075,730.206871 L1301.00075,730.206871 L1301,724.861741 C1301,724.595953 1301.217,724.379859 1301.48381,724.379859 L1301.48381,724.379859 L1306.83894,724.379859 C1307.10575,724.379859 1307.32275,724.595953 1307.32275,724.861741 L1307.32275,724.861741 L1307.32275,729.711435 L1313.92476,729.711435 L1313.92476,723.144659 L1309.06326,723.144659 C1308.79607,723.144659 1308.57907,722.927812 1308.57907,722.662024 L1308.57907,722.662024 L1308.57907,717.337976 C1308.57907,717.072188 1308.79607,716.855718 1309.06326,716.855718 L1309.06326,716.855718 L1313.92476,716.855718 L1313.92476,710.289318 L1307.32275,710.289318 L1307.32275,715.1296 C1307.32275,715.395765 1307.10575,715.612235 1306.83894,715.612235 L1306.83894,715.612235 L1301.48532,715.612235 C1301.21851,715.612235 1301.00113,715.395765 1301.00113,715.1296 L1301.00113,715.1296 L1301.00113,709.807435 C1301.00264,709.768282 1301.00528,709.740424 1301.01019,709.714824 C1301.02,709.674541 1301.02679,709.653082 1301.0351,709.631247 L1301.0351,709.631247 L1301.0585,709.584188 C1301.0551,709.590212 1301.06227,709.5744 1301.0717,709.558212 L1301.0717,709.558212 L1301.10189,709.515294 C1301.10001,709.514165 1301.11774,709.492706 1301.14077,709.469365 L1301.14077,709.469365 L1306.49778,704.139671 C1306.52155,704.117459 1306.54156,704.101647 1306.56269,704.086965 C1306.59439,704.066259 1306.60986,704.058353 1306.62534,704.050071 L1306.62534,704.050071 L1306.66458,704.033129 C1306.68232,704.0256 1306.70761,704.017694 1306.73893,704.010541 C1306.76912,704.004518 1306.79818,704.001882 1306.82611,704.000753 L1306.82611,704.000753 Z M1326.0547,710 L1327,711.049658 L1327,714.225964 L1323.53338,714.225964 L1323.53338,715.600171 L1327,715.600171 L1327,715.950342 L1326.0547,717 L1323.21803,717 L1322.27273,716.325281 L1322.27273,711.049658 L1323.21803,710 L1326.0547,710 Z M1325.73934,711.400683 L1323.53338,711.400683 L1323.53338,712.826135 L1325.73934,712.826135 L1325.73934,711.400683 Z" id="footer__logo-3e"></path>
        </g>
    </g>
</svg>
